  0
SECTION
  2
HEADER
  9
$ACADVER
  1
AC1018
  9
$ACADMAINTVER
 70
     0
  9
$DWGCODEPAGE
  3
ANSI_1252
  9
$EXTMIN
 10
480149.163144763
 20
615558.474213795
 30
0.0
  9
$EXTMAX
 10
484303.328156963
 20
621603.42277355
 30
0.0
  9
$LIMMIN
 10
0.0
 20
0.0
  9
$LIMMAX
 10
12.0
 20
9.0
  9
$ORTHOMODE
 70
     0
  9
$REGENMODE
 70
     1
  9
$FILLMODE
 70
     1
  9
$QTEXTMODE
 70
     0
  9
$MIRRTEXT
 70
     1
  9
$LTSCALE
 40
1.0
  9
$ATTMODE
 70
     1
  9
$TEXTSIZE
 40
0.2
  9
$TRACEWID
 40
0.05
  9
$TEXTSTYLE
  7
Standard
  9
$CLAYER
  8
0
  9
$CELTYPE
  6
ByLayer
  9
$CECOLOR
 62
   256
  9
$CELTSCALE
 40
1.0
  9
$DISPSILH
 70
     0
  9
$LUNITS
 70
     2
  9
$LUPREC
 70
     4
  9
$SKETCHINC
 40
0.1
  9
$FILLETRAD
 40
0.5
  9
$AUNITS
 70
     0
  9
$AUPREC
 70
     0
  9
$MENU
  1
.
  9
$ELEVATION
 40
0.0
  9
$PELEVATION
 40
0.0
  9
$THICKNESS
 40
0.0
  9
$LIMCHECK
 70
     0
  9
$CHAMFERA
 40
0.5
  9
$CHAMFERB
 40
0.5
  9
$CHAMFERC
 40
1.0
  9
$CHAMFERD
 40
0.0
  9
$SKPOLY
 70
     0
  9
$ANGBASE
 50
0.0
  9
$ANGDIR
 70
     0
  9
$PDMODE
 70
     0
  9
$PDSIZE
 40
0.0
  9
$PLINEWID
 40
0.0
  9
$SPLFRAME
 70
     0
  9
$SPLINETYPE
 70
     6
  9
$SPLINESEGS
 70
     8
  9
$HANDSEED
  5
0002003D
  9
$SURFTAB1
 70
     6
  9
$SURFTAB2
 70
     6
  9
$SURFTYPE
 70
     6
  9
$SURFU
 70
     6
  9
$SURFV
 70
     6
  9
$UCSBASE
  2

  9
$UCSNAME
  2

  9
$UCSORG
 10
0.0
 20
0.0
 30
0.0
  9
$UCSXDIR
 10
1.0
 20
0.0
 30
0.0
  9
$UCSYDIR
 10
0.0
 20
1.0
 30
0.0
  9
$UCSORTHOREF
  2

  9
$UCSORTHOVIEW
 70
     0
  9
$UCSORGTOP
 10
0.0
 20
0.0
 30
0.0
  9
$UCSORGBOTTOM
 10
0.0
 20
0.0
 30
0.0
  9
$UCSORGLEFT
 10
0.0
 20
0.0
 30
0.0
  9
$UCSORGRIGHT
 10
0.0
 20
0.0
 30
0.0
  9
$UCSORGFRONT
 10
0.0
 20
0.0
 30
0.0
  9
$UCSORGBACK
 10
0.0
 20
0.0
 30
0.0
  9
$PUCSBASE
  2

  9
$PUCSNAME
  2

  9
$PUCSORG
 10
0.0
 20
0.0
 30
0.0
  9
$PUCSXDIR
 10
1.0
 20
0.0
 30
0.0
  9
$PUCSYDIR
 10
0.0
 20
1.0
 30
0.0
  9
$PUCSORTHOREF
  2

  9
$PUCSORTHOVIEW
 70
     0
  9
$PUCSORGTOP
 10
0.0
 20
0.0
 30
0.0
  9
$PUCSORGBOTTOM
 10
0.0
 20
0.0
 30
0.0
  9
$PUCSORGLEFT
 10
0.0
 20
0.0
 30
0.0
  9
$PUCSORGRIGHT
 10
0.0
 20
0.0
 30
0.0
  9
$PUCSORGFRONT
 10
0.0
 20
0.0
 30
0.0
  9
$PUCSORGBACK
 10
0.0
 20
0.0
 30
0.0
  9
$WORLDVIEW
 70
     1
  9
$SHADEDGE
 70
     3
  9
$SHADEDIF
 70
    70
  9
$TILEMODE
 70
     1
  9
$MAXACTVP
 70
    64
  9
$PINSBASE
 10
0.0
 20
0.0
 30
0.0
  9
$PLIMCHECK
 70
     0
  9
$PEXTMIN
 10
1.000000000000000E+20
 20
1.000000000000000E+20
 30
1.000000000000000E+20
  9
$PEXTMAX
 10
-1.000000000000000E+20
 20
-1.000000000000000E+20
 30
-1.000000000000000E+20
  9
$PLIMMIN
 10
0.0
 20
0.0
  9
$PLIMMAX
 10
12.0
 20
9.0
  9
$UNITMODE
 70
     0
  9
$VISRETAIN
 70
     1
  9
$PLINEGEN
 70
     0
  9
$PSLTSCALE
 70
     1
  9
$TREEDEPTH
 70
  3020
  9
$CMLSTYLE
  2
Standard
  9
$CMLJUST
 70
     0
  9
$CMLSCALE
 40
1.0
  9
$PROXYGRAPHICS
 70
     1
  9
$MEASUREMENT
 70
     0
  9
$CELWEIGHT
370
    -1
  9
$ENDCAPS
280
     0
  9
$JOINSTYLE
280
     0
  9
$LWDISPLAY
290
     0
  9
$INSUNITS
 70
     1
  9
$HYPERLINKBASE
  1

  9
$STYLESHEET
  1

  9
$XEDIT
290
     1
  9
$CEPSNTYPE
380
     0
  9
$PSTYLEMODE
290
     1
  9
$EXTNAMES
290
     1
  9
$PSVPSCALE
 40
0.0
  9
$OLESTARTUP
290
     0
  9
$SORTENTS
280
   127
  9
$INDEXCTL
280
     0
  9
$HIDETEXT
280
     1
  9
$XCLIPFRAME
290
     0
  9
$HALOGAP
280
     0
  9
$OBSCOLOR
 70
   257
  9
$OBSLTYPE
280
     0
  9
$INTERSECTIONDISPLAY
280
     0
  9
$INTERSECTIONCOLOR
 70
   257
  9
$DIMASSOC
280
     2
  9
$PROJECTNAME
  1

  0
ENDSEC
  0
SECTION
  2
CLASSES
  0
CLASS
  1
ACDBDICTIONARYWDFLT
  2
AcDbDictionaryWithDefault
  3
ObjectDBX Classes
 90
        0
 91
        4
280
     0
281
     0
  0
ENDSEC
  0
SECTION
  2
TABLES
  0
TABLE
  2
VPORT
  5
8
330
0
100
AcDbSymbolTable
 70
     1
  0
VPORT
  5
29
330
8
100
AcDbSymbolTableRecord
100
AcDbViewportTableRecord
  2
*Active
 70
     0
 10
0.0
 20
0.0
 11
1.0
 21
1.0
 12
80.25
 22
106.4409457059851
 13
0.0
 23
0.0
 14
0.5
 24
0.5
 15
0.5
 25
0.5
 16
0.0
 26
0.0
 36
1.0
 17
0.0
 27
0.0
 37
0.0
 40
113.3818914119703
 41
0.8863849310366128
 42
50.0
 43
0.0
 44
0.0
 50
0.0
 51
0.0
 71
     0
 72
  1000
 73
     1
 74
     3
 75
     0
 76
     0
 77
     0
 78
     0
281
     0
 65
     1
110
0.0
120
0.0
130
0.0
111
1.0
121
0.0
131
0.0
112
0.0
122
1.0
132
0.0
 79
     0
146
0.0
  0
ENDTAB
  0
TABLE
  2
LTYPE
  5
5
330
0
100
AcDbSymbolTable
 70
     1
  0
LTYPE
  5
14
330
5
100
AcDbSymbolTableRecord
100
AcDbLinetypeTableRecord
  2
ByBlock
 70
     0
  3

 72
    65
 73
     0
 40
0.0
  0
LTYPE
  5
15
330
5
100
AcDbSymbolTableRecord
100
AcDbLinetypeTableRecord
  2
ByLayer
 70
     0
  3

 72
    65
 73
     0
 40
0.0
  0
LTYPE
  5
16
330
5
100
AcDbSymbolTableRecord
100
AcDbLinetypeTableRecord
  2
Continuous
 70
     0
  3
Solid line
 72
    65
 73
     0
 40
0.0
  0
ENDTAB
  0
TABLE
  2
LAYER
  5
2
330
0
100
AcDbSymbolTable
 70
     1
  0
LAYER
  5
10
330
2
100
AcDbSymbolTableRecord
100
AcDbLayerTableRecord
  2
0
 70
     0
 62
     7
  6
Continuous
370
    -3
390
F
  0
ENDTAB
  0
TABLE
  2
STYLE
  5
3
330
0
100
AcDbSymbolTable
 70
     1
  0
STYLE
  5
11
330
3
100
AcDbSymbolTableRecord
100
AcDbTextStyleTableRecord
  2
Standard
 70
     0
 40
0.0
 41
1.0
 50
0.0
 71
     0
 42
0.2
  3
txt
  4

  0
ENDTAB
  0
TABLE
  2
VIEW
  5
6
330
0
100
AcDbSymbolTable
 70
     0
  0
ENDTAB
  0
TABLE
  2
UCS
  5
7
330
0
100
AcDbSymbolTable
 70
     0
  0
ENDTAB
  0
TABLE
  2
APPID
  5
9
330
0
100
AcDbSymbolTable
 70
     1
  0
APPID
  5
12
330
9
100
AcDbSymbolTableRecord
100
AcDbRegAppTableRecord
  2
ACAD
 70
     0
  0
ENDTAB
  0
TABLE
  2
DIMSTYLE
  5
A
330
0
100
AcDbSymbolTable
 70
     1
100
AcDbDimStyleTable
  0
DIMSTYLE
105
27
330
A
100
AcDbSymbolTableRecord
100
AcDbDimStyleTableRecord
  2
Standard
 70
     0
340
11
  0
ENDTAB
  0
TABLE
  2
BLOCK_RECORD
  5
1
330
0
100
AcDbSymbolTable
 70
     1
  0
BLOCK_RECORD
  5
1F
330
1
100
AcDbSymbolTableRecord
100
AcDbBlockTableRecord
  2
*Model_Space
340
22
  0
BLOCK_RECORD
  5
1B
330
1
100
AcDbSymbolTableRecord
100
AcDbBlockTableRecord
  2
*Paper_Space
340
1E
  0
ENDTAB
  0
ENDSEC
  0
SECTION
  2
BLOCKS
  0
BLOCK
  5
20
330
1F
100
AcDbEntity
  8
0
100
AcDbBlockBegin
  2
*Model_Space
 70
     0
 10
0.0
 20
0.0
 30
0.0
  3
*Model_Space
  1

  0
ENDBLK
  5
21
330
1F
100
AcDbEntity
  8
0
100
AcDbBlockEnd
  0
BLOCK
  5
1C
330
1B
100
AcDbEntity
 67
     1
  8
0
100
AcDbBlockBegin
  2
*Paper_Space
 70
     0
 10
0.0
 20
0.0
 30
0.0
  3
*Paper_Space
  1

  0
ENDBLK
  5
1D
330
1B
100
AcDbEntity
 67
     1
  8
0
100
AcDbBlockEnd
  0
ENDSEC
  0
SECTION
  2
ENTITIES
  0
HATCH
  5
20000
100
AcDbEntity
  8
0
100
AcDbHatch
 10
0
 20
0
 30
0
210
0
220
0
230
1
  2
SOLID
 70
1
 71
0
 91
1
 92
2
 72
0
 73
1
 93
5
 10
482672.181182093
 20
619434.210988352
 10
482691.383166534
 20
619435.845203208
 10
482693.425932878
 20
619424.405723031
 10
482673.81539586
 20
619421.1372966
 10
482672.181182093
 20
619434.210988352
 97
0
 75
0
 76
1
 98
0
  0
HATCH
  5
20001
100
AcDbEntity
  8
0
100
AcDbHatch
 10
0
 20
0
 30
0
210
0
220
0
230
1
  2
SOLID
 70
1
 71
0
 91
1
 92
2
 72
0
 73
1
 93
5
 10
482677.492371947
 20
619419.503085738
 10
482684.8463234
 20
619420.320192773
 10
482686.88908881
 20
619414.191899987
 10
482677.083820086
 20
619413.7833454
 10
482677.492371947
 20
619419.503085738
 97
0
 75
0
 76
1
 98
0
  0
HATCH
  5
20002
100
AcDbEntity
  8
0
100
AcDbHatch
 10
0
 20
0
 30
0
210
0
220
0
230
1
  2
SOLID
 70
1
 71
0
 91
1
 92
2
 72
0
 73
1
 93
5
 10
482682.803561008
 20
619409.289264761
 10
482690.974618265
 20
619409.697819063
 10
482690.974620276
 20
619398.258338533
 10
482684.437774485
 20
619397.849784517
 10
482682.803561008
 20
619409.289264761
 97
0
 75
0
 76
1
 98
0
  0
HATCH
  5
20003
100
AcDbEntity
  8
0
100
AcDbHatch
 10
0
 20
0
 30
0
210
0
220
0
230
1
  2
SOLID
 70
1
 71
0
 91
1
 92
2
 72
0
 73
1
 93
5
 10
482696.28580517
 20
619411.74058437
 10
482705.682520955
 20
619412.55769176
 10
482707.316734502
 20
619400.709658639
 10
482698.328571656
 20
619399.483998443
 10
482696.28580517
 20
619411.74058437
 97
0
 75
0
 76
1
 98
0
  0
HATCH
  5
20004
100
AcDbEntity
  8
0
100
AcDbHatch
 10
0
 20
0
 30
0
210
0
220
0
230
1
  2
SOLID
 70
1
 71
0
 91
1
 92
2
 72
0
 73
1
 93
5
 10
482716.713448565
 20
619411.332035054
 10
482733.464115732
 20
619413.37480235
 10
482736.323987875
 20
619401.526769441
 10
482717.12200344
 20
619399.892554595
 10
482716.713448565
 20
619411.332035054
 97
0
 75
0
 76
1
 98
0
  0
HATCH
  5
20005
100
AcDbEntity
  8
0
100
AcDbHatch
 10
0
 20
0
 30
0
210
0
220
0
230
1
  2
SOLID
 70
1
 71
0
 91
1
 92
2
 72
0
 73
1
 93
5
 10
482706.908189817
 20
619354.134630708
 10
482729.787145667
 20
619380.690571627
 10
482744.903604586
 20
619364.348459219
 10
482723.250306689
 20
619341.469494403
 10
482706.908189817
 20
619354.134630708
 97
0
 75
0
 76
1
 98
0
  0
HATCH
  5
20006
100
AcDbEntity
  8
0
100
AcDbHatch
 10
0
 20
0
 30
0
210
0
220
0
230
1
  2
SOLID
 70
1
 71
0
 91
1
 92
2
 72
0
 73
1
 93
5
 10
482640.314080402
 20
619310.010908496
 10
482654.20487684
 20
619315.730651185
 10
482666.461467713
 20
619287.949057783
 10
482654.20488267
 20
619282.637868258
 10
482640.314080402
 20
619310.010908496
 97
0
 75
0
 76
1
 98
0
  0
HATCH
  5
20007
100
AcDbEntity
  8
0
100
AcDbHatch
 10
0
 20
0
 30
0
210
0
220
0
230
1
  2
SOLID
 70
1
 71
0
 91
1
 92
2
 72
0
 73
1
 93
5
 10
482550.432447481
 20
619323.493137629
 10
482565.957456031
 20
619325.535904737
 10
482570.042989249
 20
619299.797074286
 10
482554.517980486
 20
619298.979965806
 10
482550.432447481
 20
619323.493137629
 97
0
 75
0
 76
1
 98
0
  0
HATCH
  5
20008
100
AcDbEntity
  8
0
100
AcDbHatch
 10
0
 20
0
 30
0
210
0
220
0
230
1
  2
SOLID
 70
1
 71
0
 91
1
 92
2
 72
0
 73
1
 93
5
 10
482538.788707282
 20
619230.547356394
 10
482557.582138454
 20
619234.224335577
 10
482560.237735446
 20
619215.226627342
 10
482541.85285689
 20
619212.979583294
 10
482538.788707282
 20
619230.547356394
 97
0
 75
0
 76
1
 98
0
  0
HATCH
  5
20009
100
AcDbEntity
  8
0
100
AcDbHatch
 10
0
 20
0
 30
0
210
0
220
0
230
1
  2
SOLID
 70
1
 71
0
 91
1
 92
2
 72
0
 73
1
 93
5
 10
482576.784128892
 20
619201.744385364
 10
482601.297299961
 20
619206.647024169
 10
482604.361449197
 20
619191.122015448
 10
482578.418343101
 20
619186.219376394
 10
482576.784128892
 20
619201.744385364
 97
0
 75
0
 76
1
 98
0
  0
HATCH
  5
2000A
100
AcDbEntity
  8
0
100
AcDbHatch
 10
0
 20
0
 30
0
210
0
220
0
230
1
  2
SOLID
 70
1
 71
0
 91
1
 92
2
 72
0
 73
1
 93
5
 10
482551.862402895
 20
619208.485503427
 10
482565.753200001
 20
619210.323993807
 10
482567.183138286
 20
619191.939114673
 10
482551.658129721
 20
619190.100624006
 10
482551.862402895
 20
619208.485503427
 97
0
 75
0
 76
1
 98
0
  0
HATCH
  5
2000B
100
AcDbEntity
  8
0
100
AcDbHatch
 10
0
 20
0
 30
0
210
0
220
0
230
1
  2
SOLID
 70
1
 71
0
 91
1
 92
2
 72
0
 73
1
 93
5
 10
482541.24013954
 20
618581.76539291
 10
482569.02172786
 20
618617.718050594
 10
482585.363844701
 20
618604.644361536
 10
482560.85068044
 20
618562.154858474
 10
482541.24013954
 20
618581.76539291
 97
0
 75
0
 76
1
 98
0
  0
HATCH
  5
2000C
100
AcDbEntity
  8
0
100
AcDbHatch
 10
0
 20
0
 30
0
210
0
220
0
230
1
  2
SOLID
 70
1
 71
0
 91
1
 92
2
 72
0
 73
1
 93
5
 10
482587.815166649
 20
618577.679872368
 10
482605.79149421
 20
618568.691712325
 10
482590.266490475
 20
618540.093008524
 10
482569.838845596
 20
618549.898273877
 10
482587.815166649
 20
618577.679872368
 97
0
 75
0
 76
1
 98
0
  0
HATCH
  5
2000D
100
AcDbEntity
  8
0
100
AcDbHatch
 10
0
 20
0
 30
0
210
0
220
0
230
1
  2
SOLID
 70
1
 71
0
 91
1
 92
2
 72
0
 73
1
 93
5
 10
482441.55329212
 20
618294.961259134
 10
482450.541452604
 20
618308.852058356
 10
482484.042791643
 20
618284.338891989
 10
482475.871737025
 20
618269.630987176
 10
482441.55329212
 20
618294.961259134
 97
0
 75
0
 76
1
 98
0
  0
HATCH
  5
2000E
100
AcDbEntity
  8
0
100
AcDbHatch
 10
0
 20
0
 30
0
210
0
220
0
230
1
  2
SOLID
 70
1
 71
0
 91
1
 92
2
 72
0
 73
1
 93
5
 10
481942.71011882
 20
618998.08066389
 10
481957.009466317
 20
619013.197122846
 10
481967.631843272
 20
618999.714879921
 10
481953.332495401
 20
618986.64118534
 10
481942.71011882
 20
618998.08066389
 97
0
 75
0
 76
1
 98
0
  0
HATCH
  5
2000F
100
AcDbEntity
  8
0
100
AcDbHatch
 10
0
 20
0
 30
0
210
0
220
0
230
1
  2
SOLID
 70
1
 71
0
 91
1
 92
2
 72
0
 73
1
 93
5
 10
481690.633030506
 20
618840.787761165
 10
481713.511985737
 20
618868.569360804
 10
481723.317256905
 20
618855.495670648
 10
481708.609359867
 20
618822.811438038
 10
481690.633030506
 20
618840.787761165
 97
0
 75
0
 76
1
 98
0
  0
HATCH
  5
20010
100
AcDbEntity
  8
0
100
AcDbHatch
 10
0
 20
0
 30
0
210
0
220
0
230
1
  2
SOLID
 70
1
 71
0
 91
1
 92
2
 72
0
 73
1
 93
5
 10
482032.183212087
 20
618911.058917929
 10
482046.891116398
 20
618904.522074607
 10
482035.451641563
 20
618875.106265613
 10
482015.841101989
 20
618886.545742528
 10
482032.183212087
 20
618911.058917929
 97
0
 75
0
 76
1
 98
0
  0
HATCH
  5
20011
100
AcDbEntity
  8
0
100
AcDbHatch
 10
0
 20
0
 30
0
210
0
220
0
230
1
  2
SOLID
 70
1
 71
0
 91
1
 92
2
 72
0
 73
1
 93
5
 10
481827.49827121
 20
618671.646896751
 10
481852.011438496
 20
618696.160073624
 10
481879.793036525
 20
618678.183752286
 10
481860.182504198
 20
618650.402153338
 10
481827.49827121
 20
618671.646896751
 97
0
 75
0
 76
1
 98
0
  0
HATCH
  5
20012
100
AcDbEntity
  8
0
100
AcDbHatch
 10
0
 20
0
 30
0
210
0
220
0
230
1
  2
SOLID
 70
1
 71
0
 91
1
 92
2
 72
0
 73
1
 93
5
 10
481791.545377757
 20
619977.381881082
 10
481814.424331772
 20
620013.334538591
 10
481830.766448943
 20
620000.26084947
 10
481804.619073183
 20
619957.771345316
 10
481791.545377757
 20
619977.381881082
 97
0
 75
0
 76
1
 98
0
  0
HATCH
  5
20013
100
AcDbEntity
  8
0
100
AcDbHatch
 10
0
 20
0
 30
0
210
0
220
0
230
1
  2
SOLID
 70
1
 71
0
 91
1
 92
2
 72
0
 73
1
 93
5
 10
483703.57284166
 20
619748.592601792
 10
483723.183380937
 20
619738.78733595
 10
483706.84127434
 20
619689.760987987
 10
483674.157042763
 20
619702.834674691
 10
483703.57284166
 20
619748.592601792
 97
0
 75
0
 76
1
 98
0
  0
HATCH
  5
20014
100
AcDbEntity
  8
0
100
AcDbHatch
 10
0
 20
0
 30
0
210
0
220
0
230
1
  2
SOLID
 70
1
 71
0
 91
1
 92
2
 72
0
 73
1
 93
5
 10
480614.913767404
 20
616666.469186689
 10
480601.840060578
 20
616744.911334184
 10
480660.671669197
 20
616757.985037363
 10
480660.671685896
 20
616673.006041463
 10
480614.913767404
 20
616666.469186689
 97
0
 75
0
 76
1
 98
0
  0
HATCH
  5
20015
100
AcDbEntity
  8
0
100
AcDbHatch
 10
0
 20
0
 30
0
210
0
220
0
230
1
  2
SOLID
 70
1
 71
0
 91
1
 92
2
 72
0
 73
1
 93
5
 10
480987.513531924
 20
618941.291635867
 10
480990.781946007
 20
618987.049558413
 10
481026.734601253
 20
618970.707450323
 10
481020.197761719
 20
618938.023219135
 10
480987.513531924
 20
618941.291635867
 97
0
 75
0
 76
1
 98
0
  0
HATCH
  5
20016
100
AcDbEntity
  8
0
100
AcDbHatch
 10
0
 20
0
 30
0
210
0
220
0
230
1
  2
SOLID
 70
1
 71
0
 91
1
 92
2
 72
0
 73
1
 93
5
 10
481118.250421944
 20
619080.199638162
 10
481136.22674801
 20
619080.199641583
 10
481128.055696972
 20
619047.515410053
 10
481101.908313298
 20
619049.149616573
 10
481118.250421944
 20
619080.199638162
 97
0
 75
0
 76
1
 98
0
  0
HATCH
  5
20017
100
AcDbEntity
  8
0
100
AcDbHatch
 10
0
 20
0
 30
0
210
0
220
0
230
1
  2
SOLID
 70
1
 71
0
 91
1
 92
2
 72
0
 73
1
 93
5
 10
480531.568392595
 20
619661.978820116
 10
480567.52103978
 20
619688.12621131
 10
480577.326313116
 20
619665.247252105
 10
480554.447357695
 20
619639.099863485
 10
480531.568392595
 20
619661.978820116
 97
0
 75
0
 76
1
 98
0
  0
HATCH
  5
20018
100
AcDbEntity
  8
0
100
AcDbHatch
 10
0
 20
0
 30
0
210
0
220
0
230
1
  2
SOLID
 70
1
 71
0
 91
1
 92
2
 72
0
 73
1
 93
5
 10
484264.107079872
 20
621603.42277355
 10
484303.328156963
 20
621596.885933592
 10
484296.791320858
 20
621534.78589403
 10
484257.57024536
 20
621531.517464742
 10
484264.107079872
 20
621603.42277355
 97
0
 75
0
 76
1
 98
0
  0
HATCH
  5
20019
100
AcDbEntity
  8
0
100
AcDbHatch
 10
0
 20
0
 30
0
210
0
220
0
230
1
  2
SOLID
 70
1
 71
0
 91
1
 92
2
 72
0
 73
1
 93
5
 10
482296.516558225
 20
620897.443059096
 10
482365.153460138
 20
620789.585110446
 10
482296.516581137
 20
620769.9745599
 10
482237.684953408
 20
620848.416702722
 10
482296.516558225
 20
620897.443059096
 97
0
 75
0
 76
1
 98
0
  0
HATCH
  5
2001A
100
AcDbEntity
  8
0
100
AcDbHatch
 10
0
 20
0
 30
0
210
0
220
0
230
1
  2
SOLID
 70
1
 71
0
 91
1
 92
2
 72
0
 73
1
 93
5
 10
482139.632326262
 20
620505.232264759
 10
482198.463929052
 20
620564.063890163
 10
482208.269220991
 20
620436.595393157
 10
482139.632340488
 20
620426.7901117
 10
482139.632326262
 20
620505.232264759
 97
0
 75
0
 76
1
 98
0
  0
HATCH
  5
2001B
100
AcDbEntity
  8
0
100
AcDbHatch
 10
0
 20
0
 30
0
210
0
220
0
230
1
  2
SOLID
 70
1
 71
0
 91
1
 92
2
 72
0
 73
1
 93
5
 10
481139.494995653
 20
619995.358085921
 10
481173.813437579
 20
619990.455457897
 10
481168.910809715
 20
619956.137015174
 10
481134.592368739
 20
619956.137008654
 10
481139.494995653
 20
619995.358085921
 97
0
 75
0
 76
1
 98
0
  0
HATCH
  5
2001C
100
AcDbEntity
  8
0
100
AcDbHatch
 10
0
 20
0
 30
0
210
0
220
0
230
1
  2
SOLID
 70
1
 71
0
 91
1
 92
2
 72
0
 73
1
 93
5
 10
480521.762905633
 20
620765.071592806
 10
480560.983978454
 20
620779.779504244
 10
480570.789253188
 20
620750.363698676
 10
480556.081357535
 20
620711.142619157
 10
480521.762905633
 20
620765.071592806
 97
0
 75
0
 76
1
 98
0
  0
HATCH
  5
2001D
100
AcDbEntity
  8
0
100
AcDbHatch
 10
0
 20
0
 30
0
210
0
220
0
230
1
  2
SOLID
 70
1
 71
0
 91
1
 92
2
 72
0
 73
1
 93
5
 10
480384.489249944
 20
620215.976494171
 10
480423.710321552
 20
620235.587040138
 10
480423.710334219
 20
620171.852790944
 10
480384.489258731
 20
620171.852783195
 10
480384.489249944
 20
620215.976494171
 97
0
 75
0
 76
1
 98
0
  0
HATCH
  5
2001E
100
AcDbEntity
  8
0
100
AcDbHatch
 10
0
 20
0
 30
0
210
0
220
0
230
1
  2
SOLID
 70
1
 71
0
 91
1
 92
2
 72
0
 73
1
 93
5
 10
480521.76306075
 20
619980.650062915
 10
480565.886765751
 20
620005.163244285
 10
480575.692046209
 20
619946.331631702
 10
480521.763071415
 20
619926.721082966
 10
480521.76306075
 20
619980.650062915
 97
0
 75
0
 76
1
 98
0
  0
HATCH
  5
2001F
100
AcDbEntity
  8
0
100
AcDbHatch
 10
0
 20
0
 30
0
210
0
220
0
230
1
  2
SOLID
 70
1
 71
0
 91
1
 92
2
 72
0
 73
1
 93
5
 10
482919.151424415
 20
619235.4500571
 10
482953.469863439
 20
619245.255332011
 10
482968.177778483
 20
619176.618451492
 10
482924.054071561
 20
619161.910540406
 10
482919.151424415
 20
619235.4500571
 97
0
 75
0
 76
1
 98
0
  0
HATCH
  5
20020
100
AcDbEntity
  8
0
100
AcDbHatch
 10
0
 20
0
 30
0
210
0
220
0
230
1
  2
SOLID
 70
1
 71
0
 91
1
 92
2
 72
0
 73
1
 93
5
 10
480149.163144763
 20
618490.249099518
 10
480198.189486316
 20
618500.054378258
 10
480198.189493218
 20
618465.735936986
 10
480154.065788009
 20
618446.125390299
 10
480149.163144763
 20
618490.249099518
 97
0
 75
0
 76
1
 98
0
  0
HATCH
  5
20021
100
AcDbEntity
  8
0
100
AcDbHatch
 10
0
 20
0
 30
0
210
0
220
0
230
1
  2
SOLID
 70
1
 71
0
 91
1
 92
2
 72
0
 73
1
 93
5
 10
480972.805767132
 20
618225.507000104
 10
481007.124201831
 20
618254.922813414
 10
481041.442649768
 20
618215.701744343
 10
481007.12421791
 20
618171.578027701
 10
480972.805767132
 20
618225.507000104
 97
0
 75
0
 76
1
 98
0
  0
HATCH
  5
20022
100
AcDbEntity
  8
0
100
AcDbHatch
 10
0
 20
0
 30
0
210
0
220
0
230
1
  2
SOLID
 70
1
 71
0
 91
1
 92
2
 72
0
 73
1
 93
5
 10
481615.050671454
 20
619264.86563105
 10
481644.466475969
 20
619274.67090551
 10
481659.174391015
 20
619210.936659665
 10
481624.855951214
 20
619206.03401881
 10
481615.050671454
 20
619264.86563105
 97
0
 75
0
 76
1
 98
0
  0
HATCH
  5
20023
100
AcDbEntity
  8
0
100
AcDbHatch
 10
0
 20
0
 30
0
210
0
220
0
230
1
  2
SOLID
 70
1
 71
0
 91
1
 92
2
 72
0
 73
1
 93
5
 10
482208.269698543
 20
617794.075398437
 10
482247.490771313
 20
617803.88067433
 10
482272.00395615
 20
617730.341162249
 10
482232.782883406
 20
617720.535886372
 10
482208.269698543
 20
617794.075398437
 97
0
 75
0
 76
1
 98
0
  0
HATCH
  5
20024
100
AcDbEntity
  8
0
100
AcDbHatch
 10
0
 20
0
 30
0
210
0
220
0
230
1
  2
SOLID
 70
1
 71
0
 91
1
 92
2
 72
0
 73
1
 93
5
 10
482291.614617798
 20
617039.069713666
 10
482311.225170781
 20
616950.822298102
 10
482232.783022374
 20
616950.822284079
 10
482222.977736109
 20
617048.874970176
 10
482291.614617798
 20
617039.069713666
 97
0
 75
0
 76
1
 98
0
  0
HATCH
  5
20025
100
AcDbEntity
  8
0
100
AcDbHatch
 10
0
 20
0
 30
0
210
0
220
0
230
1
  2
SOLID
 70
1
 71
0
 91
1
 92
2
 72
0
 73
1
 93
5
 10
482801.48840296
 20
618068.623031666
 10
482860.320006393
 20
618117.64938632
 10
482909.346368456
 20
618009.79143697
 10
482840.709494703
 20
617970.570349585
 10
482801.48840296
 20
618068.623031666
 97
0
 75
0
 76
1
 98
0
  0
HATCH
  5
20026
100
AcDbEntity
  8
0
100
AcDbHatch
 10
0
 20
0
 30
0
210
0
220
0
230
1
  2
SOLID
 70
1
 71
0
 91
1
 92
2
 72
0
 73
1
 93
5
 10
481575.829904627
 20
617617.580443544
 10
481644.466781292
 20
617637.19099397
 10
481644.466801408
 20
617529.333036685
 10
481575.829922982
 20
617519.527755118
 10
481575.829904627
 20
617617.580443544
 97
0
 75
0
 76
1
 98
0
  0
HATCH
  5
20027
100
AcDbEntity
  8
0
100
AcDbHatch
 10
0
 20
0
 30
0
210
0
220
0
230
1
  2
SOLID
 70
1
 71
0
 91
1
 92
2
 72
0
 73
1
 93
5
 10
480712.966297002
 20
617460.695978006
 10
480781.603169561
 20
617499.917066672
 10
480811.018990672
 20
617421.474921713
 10
480732.576849562
 20
617382.253831193
 10
480712.966297002
 20
617460.695978006
 97
0
 75
0
 76
1
 98
0
  0
HATCH
  5
20028
100
AcDbEntity
  8
0
100
AcDbHatch
 10
0
 20
0
 30
0
210
0
220
0
230
1
  2
SOLID
 70
1
 71
0
 91
1
 92
2
 72
0
 73
1
 93
5
 10
480330.560660858
 20
618264.727950417
 10
480379.586986685
 20
618352.975380386
 10
480418.808075101
 20
618284.338505713
 10
480379.587021857
 20
618176.480539956
 10
480330.560660858
 20
618264.727950417
 97
0
 75
0
 76
1
 98
0
  0
HATCH
  5
20029
100
AcDbEntity
  8
0
100
AcDbHatch
 10
0
 20
0
 30
0
210
0
220
0
230
1
  2
SOLID
 70
1
 71
0
 91
1
 92
2
 72
0
 73
1
 93
5
 10
481497.387644177
 20
618210.799196011
 10
481556.219254399
 20
618220.604475877
 10
481570.927166594
 20
618171.578134084
 10
481512.095558241
 20
618151.96758533
 10
481497.387644177
 20
618210.799196011
 97
0
 75
0
 76
1
 98
0
  0
HATCH
  5
2002A
100
AcDbEntity
  8
0
100
AcDbHatch
 10
0
 20
0
 30
0
210
0
220
0
230
1
  2
SOLID
 70
1
 71
0
 91
1
 92
2
 72
0
 73
1
 93
5
 10
481968.040588247
 20
617950.959657016
 10
481972.943233347
 20
617892.128044641
 10
481923.916888324
 20
617901.933304593
 10
481909.208976344
 20
617950.959646303
 10
481968.040588247
 20
617950.959657016
 97
0
 75
0
 76
1
 98
0
  0
HATCH
  5
2002B
100
AcDbEntity
  8
0
100
AcDbHatch
 10
0
 20
0
 30
0
210
0
220
0
230
1
  2
SOLID
 70
1
 71
0
 91
1
 92
2
 72
0
 73
1
 93
5
 10
482154.340604608
 20
618436.320501507
 10
482193.561672307
 20
618475.54158428
 10
482193.561688271
 20
618387.294163922
 10
482154.340613496
 20
618387.294156873
 10
482154.340604608
 20
618436.320501507
 97
0
 75
0
 76
1
 98
0
  0
HATCH
  5
2002C
100
AcDbEntity
  8
0
100
AcDbHatch
 10
0
 20
0
 30
0
210
0
220
0
230
1
  2
SOLID
 70
1
 71
0
 91
1
 92
2
 72
0
 73
1
 93
5
 10
480663.939637198
 20
619073.66270463
 10
480708.063344709
 20
619083.467982217
 10
480703.160720896
 20
619029.539001808
 10
480668.842280242
 20
619029.538995124
 10
480663.939637198
 20
619073.66270463
 97
0
 75
0
 76
1
 98
0
  0
HATCH
  5
2002D
100
AcDbEntity
  8
0
100
AcDbHatch
 10
0
 20
0
 30
0
210
0
220
0
230
1
  2
SOLID
 70
1
 71
0
 91
1
 92
2
 72
0
 73
1
 93
5
 10
480909.071456076
 20
618558.886131315
 10
480933.584625956
 20
618568.691404973
 10
480948.292541358
 20
618504.957159692
 10
480913.974103738
 20
618490.249249689
 10
480909.071456076
 20
618558.886131315
 97
0
 75
0
 76
1
 98
0
  0
HATCH
  5
2002E
100
AcDbEntity
  8
0
100
AcDbHatch
 10
0
 20
0
 30
0
210
0
220
0
230
1
  2
SOLID
 70
1
 71
0
 91
1
 92
2
 72
0
 73
1
 93
5
 10
481659.174509746
 20
618573.594176288
 10
481639.563994266
 20
618455.930945413
 10
481615.050822514
 20
618455.930940872
 10
481634.661338879
 20
618568.691537281
 10
481659.174509746
 20
618573.594176288
 97
0
 75
0
 76
1
 98
0
  0
HATCH
  5
2002F
100
AcDbEntity
  8
0
100
AcDbHatch
 10
0
 20
0
 30
0
210
0
220
0
230
1
  2
SOLID
 70
1
 71
0
 91
1
 92
2
 72
0
 73
1
 93
5
 10
483198.601623906
 20
619005.026283371
 10
483203.504270833
 20
618931.486766836
 10
483149.575290204
 20
618946.194661162
 10
483144.672645756
 20
619005.026274226
 10
483198.601623906
 20
619005.026283371
 97
0
 75
0
 76
1
 98
0
  0
HATCH
  5
20030
100
AcDbEntity
  8
0
100
AcDbHatch
 10
0
 20
0
 30
0
210
0
220
0
230
1
  2
SOLID
 70
1
 71
0
 91
1
 92
2
 72
0
 73
1
 93
5
 10
482183.756259868
 20
619269.768369319
 10
482218.074698832
 20
619279.57364449
 10
482213.172076841
 20
619210.93676054
 10
482183.756269627
 20
619215.839389765
 10
482183.756259868
 20
619269.768369319
 97
0
 75
0
 76
1
 98
0
  0
HATCH
  5
20031
100
AcDbEntity
  8
0
100
AcDbHatch
 10
0
 20
0
 30
0
210
0
220
0
230
1
  2
SOLID
 70
1
 71
0
 91
1
 92
2
 72
0
 73
1
 93
5
 10
482664.214249739
 20
620294.419071577
 10
482693.630049495
 20
620333.640153178
 10
482752.461674838
 20
620265.003279611
 10
482693.630068452
 20
620225.782192931
 10
482664.214249739
 20
620294.419071577
 97
0
 75
0
 76
1
 98
0
  0
HATCH
  5
20032
100
AcDbEntity
  8
0
100
AcDbHatch
 10
0
 20
0
 30
0
210
0
220
0
230
1
  2
SOLID
 70
1
 71
0
 91
1
 92
2
 72
0
 73
1
 93
5
 10
482321.02994622
 20
619696.297596847
 10
482389.666822724
 20
619725.713416222
 10
482419.082643211
 20
619647.271269005
 10
482350.445772025
 20
619588.439642537
 10
482321.02994622
 20
619696.297596847
 97
0
 75
0
 76
1
 98
0
  0
HATCH
  5
20033
100
AcDbEntity
  8
0
100
AcDbHatch
 10
0
 20
0
 30
0
210
0
220
0
230
1
  2
SOLID
 70
1
 71
0
 91
1
 92
2
 72
0
 73
1
 93
5
 10
482732.851238531
 20
619686.492400306
 10
482830.903931886
 20
619657.07661016
 10
482840.709214377
 20
619578.63445948
 10
482723.045988636
 20
619578.634439065
 10
482732.851238531
 20
619686.492400306
 97
0
 75
0
 76
1
 98
0
  0
HATCH
  5
20034
100
AcDbEntity
  8
0
100
AcDbHatch
 10
0
 20
0
 30
0
210
0
220
0
230
1
  2
SOLID
 70
1
 71
0
 91
1
 92
2
 72
0
 73
1
 93
5
 10
482428.888050281
 20
618872.655018834
 10
482497.524927987
 20
618892.265568914
 10
482497.524948907
 20
618774.602341288
 10
482409.277528566
 20
618784.407594644
 10
482428.888050281
 20
618872.655018834
 97
0
 75
0
 76
1
 98
0
  0
HATCH
  5
20035
100
AcDbEntity
  8
0
100
AcDbHatch
 10
0
 20
0
 30
0
210
0
220
0
230
1
  2
SOLID
 70
1
 71
0
 91
1
 92
2
 72
0
 73
1
 93
5
 10
482654.409775786
 20
615783.995380812
 10
482772.072991851
 20
615813.411207322
 10
482830.904634995
 20
615627.111113042
 10
482723.046694441
 20
615558.474213795
 10
482654.409775786
 20
615783.995380812
 97
0
 75
0
 76
1
 98
0
  0
HATCH
  5
20036
100
AcDbEntity
  8
0
100
AcDbHatch
 10
0
 20
0
 30
0
210
0
220
0
230
1
  2
SOLID
 70
1
 71
0
 91
1
 92
2
 72
0
 73
1
 93
5
 10
482850.515029952
 20
616440.94841758
 10
482830.904511775
 20
616333.090458224
 10
482791.683430957
 20
616372.311526308
 10
482791.683412091
 20
616480.169482313
 10
482850.515029952
 20
616440.94841758
 97
0
 75
0
 76
1
 98
0
  0
HATCH
  5
20037
100
AcDbEntity
  8
0
100
AcDbHatch
 10
0
 20
0
 30
0
210
0
220
0
230
1
  2
SOLID
 70
1
 71
0
 91
1
 92
2
 72
0
 73
1
 93
5
 10
481771.935545786
 20
616166.400701115
 10
481899.404034133
 20
616176.205993174
 10
481919.014585498
 20
616097.763847159
 10
481791.546095435
 20
616097.763823828
 10
481771.935545786
 20
616166.400701115
 97
0
 75
0
 76
1
 98
0
  0
HATCH
  5
20038
100
AcDbEntity
  8
0
100
AcDbHatch
 10
0
 20
0
 30
0
210
0
220
0
230
1
  2
SOLID
 70
1
 71
0
 91
1
 92
2
 72
0
 73
1
 93
5
 10
481909.209407185
 20
615607.500411835
 10
481840.572531882
 20
615587.889861993
 10
481860.183032553
 20
615783.995238665
 10
481919.014637757
 20
615813.41105541
 10
481909.209407185
 20
615607.500411835
 97
0
 75
0
 76
1
 98
0
  0
HATCH
  5
20039
100
AcDbEntity
  8
0
100
AcDbHatch
 10
0
 20
0
 30
0
210
0
220
0
230
1
  2
SOLID
 70
1
 71
0
 91
1
 92
2
 72
0
 73
1
 93
5
 10
481262.061615048
 20
616009.516306929
 10
481320.893225795
 20
616009.516318034
 10
481281.672176214
 20
615882.047817791
 10
481232.645830247
 20
615901.658345869
 10
481262.061615048
 20
616009.516306929
 97
0
 75
0
 76
1
 98
0
  0
HATCH
  5
2003A
100
AcDbEntity
  8
0
100
AcDbHatch
 10
0
 20
0
 30
0
210
0
220
0
230
1
  2
SOLID
 70
1
 71
0
 91
1
 92
2
 72
0
 73
1
 93
5
 10
482066.093633941
 20
615980.100649604
 10
482026.872552957
 20
616019.321717243
 10
482066.093605343
 20
616136.984948664
 10
482115.119954823
 20
616097.763882732
 10
482066.093633941
 20
615980.100649604
 97
0
 75
0
 76
1
 98
0
  0
HATCH
  5
2003B
100
AcDbEntity
  8
0
100
AcDbHatch
 10
0
 20
0
 30
0
210
0
220
0
230
1
  2
SOLID
 70
1
 71
0
 91
1
 92
2
 72
0
 73
1
 93
5
 10
482448.499059932
 20
616225.23243543
 10
482389.667468366
 20
616117.374469271
 10
482330.835850513
 20
616156.5955336
 10
482379.862170044
 20
616284.064035521
 10
482448.499059932
 20
616225.23243543
 97
0
 75
0
 76
1
 98
0
  0
HATCH
  5
2003C
100
AcDbEntity
  8
0
100
AcDbHatch
 10
0
 20
0
 30
0
210
0
220
0
230
1
  2
SOLID
 70
1
 71
0
 91
1
 92
2
 72
0
 73
1
 93
5
 10
482526.941105019
 20
616803.74330475
 10
482575.967463328
 20
616715.495894526
 10
482497.525322086
 20
616676.274805692
 10
482468.109506032
 20
616735.106413031
 10
482526.941105019
 20
616803.74330475
 97
0
 75
0
 76
1
 98
0
  0
ENDSEC
  0
SECTION
  2
OBJECTS
  0
DICTIONARY
  5
C
330
0
100
AcDbDictionary
281
     1
  3
ACAD_GROUP
350
D
  3
ACAD_LAYOUT
350
1A
  3
ACAD_MLEADERSTYLE
350
43
  3
ACAD_PLOTSETTINGS
350
19
  3
ACAD_PLOTSTYLENAME
350
E
  3
ACAD_TABLESTYLE
350
42
  0
DICTIONARY
  5
D
102
{ACAD_REACTORS
330
C
102
}
330
C
100
AcDbDictionary
281
     1
  0
DICTIONARY
  5
1A
102
{ACAD_REACTORS
330
C
102
}
330
C
100
AcDbDictionary
281
     1
  3
Layout1
350
1E
  3
Model
350
22
  0
DICTIONARY
  5
43
102
{ACAD_REACTORS
330
C
102
}
330
C
100
AcDbDictionary
281
     1
  0
DICTIONARY
  5
19
102
{ACAD_REACTORS
330
C
102
}
330
C
100
AcDbDictionary
281
     1
  0
ACDBDICTIONARYWDFLT
  5
E
102
{ACAD_REACTORS
330
C
102
}
330
C
100
AcDbDictionary
281
     1
  3
Normal
350
F
100
AcDbDictionaryWithDefault
340
F
  0
DICTIONARY
  5
42
102
{ACAD_REACTORS
330
C
102
}
330
C
100
AcDbDictionary
281
     1
  0
LAYOUT
  5
1E
102
{ACAD_REACTORS
330
1A
102
}
330
1A
100
AcDbPlotSettings
  1

  2
none_device
  4

  6

 40
0.0
 41
0.0
 42
0.0
 43
0.0
 44
0.0
 45
0.0
 46
0.0
 47
0.0
 48
0.0
 49
0.0
140
0.0
141
0.0
142
1.0
143
1.0
 70
   688
 72
     0
 73
     0
 74
     5
  7

 75
    16
 76
     0
 77
     2
 78
   300
147
1.0
148
0.0
149
0.0
100
AcDbLayout
  1
Layout1
 70
     1
 71
     1
 10
0.0
 20
0.0
 11
12.0
 21
9.0
 12
0.0
 22
0.0
 32
0.0
 14
1.000000000000000E+20
 24
1.000000000000000E+20
 34
1.000000000000000E+20
 15
-1.000000000000000E+20
 25
-1.000000000000000E+20
 35
-1.000000000000000E+20
146
0.0
 13
0.0
 23
0.0
 33
0.0
 16
1.0
 26
0.0
 36
0.0
 17
0.0
 27
1.0
 37
0.0
 76
     0
330
1B
  0
LAYOUT
  5
22
102
{ACAD_REACTORS
330
1A
102
}
330
1A
100
AcDbPlotSettings
  1

  2
none_device
  4

  6

 40
0.0
 41
0.0
 42
0.0
 43
0.0
 44
0.0
 45
0.0
 46
0.0
 47
0.0
 48
0.0
 49
0.0
140
0.0
141
0.0
142
1.0
143
1.0
 70
  1712
 72
     0
 73
     0
 74
     0
  7

 75
     0
 76
     0
 77
     2
 78
   300
147
1.0
148
0.0
149
0.0
100
AcDbLayout
  1
Model
 70
     1
 71
     0
 10
0.0
 20
0.0
 11
12.0
 21
9.0
 12
0.0
 22
0.0
 32
0.0
 14
30.0
 24
49.75
 34
0.0
 15
130.5
 25
163.1318914119703
 35
0.0
146
0.0
 13
0.0
 23
0.0
 33
0.0
 16
1.0
 26
0.0
 36
0.0
 17
0.0
 27
1.0
 37
0.0
 76
     0
330
1F
331
29
  0
ACDBPLACEHOLDER
  5
F
102
{ACAD_REACTORS
330
E
102
}
330
E
  0
ENDSEC
  0
EOF
